#!OML:ASF F:\VICON\USERDATA\INSTALL\rory3\rory3.ASF
:FULLY-SPECIFIED
:DEGREES
226
root 4.57018 17.9254 -1.02014 -3.13701 -17.9083 3.7046
lowerback 25.7588 -1.65165 -0.868649
upperback 5.64612 -1.80269 7.0523
thorax -7.73903 -0.85433 9.01554
lowerneck -11.0069 -2.9005 -3.33081
upperneck 25.8404 -1.81332 -6.65297
head 10.0203 -1.95106 -1.99422
rclavicle 3.57812e-014 -5.40694e-014
rhumerus -56.0591 -46.6509 -35.8017
rradius 76.6616
rwrist -41.7035
rhand -19.1372 -4.3928
rfingers 7.12502
rthumb 7.17276 -34.2512
lclavicle 3.57812e-014 -5.40694e-014
lhumerus -51.2612 8.7336 78.9428
lradius 54.5109
lwrist 8.67401
lhand -10.6806 45.4349
lfingers 7.12502
lthumb 15.3281 74.8469
rfemur -23.4933 7.50356 18.2625
rtibia 41.1077
rfoot -10.1807 -9.1127
rtoes 9.79452
lfemur -7.75169 9.29717 -22.3828
ltibia 53.8821
lfoot -8.45665 -0.662998
ltoes -26.3641
227
root 4.57101 17.9212 -1.16703 -3.18232 -17.7478 3.85033
lowerback 25.4059 -1.89898 -1.38168
upperback 5.58713 -2.26012 7.1071
thorax -7.52736 -1.07267 9.50405
lowerneck -10.8385 -2.53913 -3.49083
upperneck 25.6926 -1.29237 -6.6516
head 9.94958 -1.72332 -1.89932
rclavicle -3.18055e-015 1.04958e-013
rhumerus -57.1141 -46.2227 -34.6687
rradius 78.6145
rwrist -42.6487
rhand -17.6131 -4.60093
rfingers 7.12502
rthumb 8.6437 -34.404
lclavicle -3.18055e-015 1.04958e-013
lhumerus -51.9968 9.68131 78.4098
lradius 54.6298
lwrist 8.74774
lhand -10.4938 46.1501
lfingers 7.12502
lthumb 15.5081 75.5481
rfemur -23.9528 7.37445 18.182
rtibia 41.0166
rfoot -9.81771 -8.97978
rtoes 10.6773
lfemur -6.04685 9.27529 -22.7512
ltibia 52.9638
lfoot -7.72265 -1.60876
ltoes -27.9511
228
root 4.56824 17.9165 -1.31723 -3.27678 -17.5009 4.0899
lowerback 25.0324 -1.97808 -1.77572
upperback 5.64713 -2.48297 7.0238
thorax -7.21767 -1.18886 9.67447
lowerneck -10.8526 -2.43744 -3.54793
upperneck 25.4638 -1.20082 -6.4302
head 9.87325 -1.65549 -1.79505
rclavicle 1.51076e-014 -1.59028e-014
rhumerus -58.5231 -46.0088 -33.2389
rradius 80.4988
rwrist -44.0677
rhand -16.2242 -4.6255
rfingers 7.12502
rthumb 9.98387 -34.3687
lclavicle 1.51076e-014 -1.59028e-014
lhumerus -52.0549 9.7936 78.0473
lradius 54.453
lwrist 9.08485
lhand -10.9411 46.2445
lfingers 7.12502
lthumb 15.0773 75.6755
rfemur -24.4146 7.26607 17.9825
rtibia 41.0189
rfoot -9.52695 -8.88697
rtoes 11.7188
lfemur -4.31378 9.2908 -23.146
ltibia 51.8812
lfoot -7.28155 -2.57062
ltoes -29.8862
229
root 4.56676 17.9082 -1.46551 -3.38896 -17.3099 4.25913
lowerback 24.9586 -2.08774 -2.11441
upperback 5.51062 -2.71567 6.89213
thorax -7.28135 -1.28893 9.79509
lowerneck -10.5815 -2.28457 -3.19525
upperneck 25.2515 -1.0403 -6.62827
head 9.7403 -1.56163 -1.89487
rclavicle 1.82882e-014 -4.92986e-014
rhumerus -60.0193 -45.7506 -31.7073
rradius 82.2077
rwrist -45.2981
rhand -14.7651 -4.71352
rfingers 7.12502
rthumb 11.3913 -34.3841
lclavicle 1.82882e-014 -4.92986e-014
lhumerus -52.4018 9.97871 77.4613
lradius 54.1264
lwrist 9.38945
lhand -11.24 46.7127
lfingers 7.12502
lthumb 14.7892 76.165
rfemur -24.858 7.20476 17.8719
rtibia 41.0263
rfoot -9.02454 -8.88657
rtoes 10.8228
lfemur -2.60867 9.29477 -23.4465
ltibia 50.7644
lfoot -6.78871 -3.63911
ltoes -30.5137
230
root 4.57108 17.8897 -1.615 -3.48815 -17.1105 4.6311
lowerback 25.4579 -2.26099 -2.87054
upperback 4.83016 -3.09654 6.87514
thorax -8.18693 -1.38968 10.4381
lowerneck -9.79409 -2.02982 -3.0413
upperneck 25.2237 -0.664893 -7.08146
head 9.58484 -1.41584 -2.02394
rclavicle 1.51076e-014 -2.06736e-014
rhumerus -61.1152 -44.6184 -30.2727
rradius 83.7841
rwrist -46.0994
rhand -13.9978 -4.9624
rfingers 7.12502
rthumb 12.1313 -34.5907
lclavicle 1.51076e-014 -2.06736e-014
lhumerus -54.0169 10.595 76.8183
lradius 54.2888
lwrist 9.50297
lhand -10.83 47.6766
lfingers 7.12502
lthumb 15.1842 77.0994
rfemur -25.4025 7.08867 17.5041
rtibia 40.9752
rfoot -8.31288 -8.81104
rtoes 9.5389
lfemur -1.03667 9.16399 -24.0444
ltibia 49.6258
lfoot -6.17639 -4.5422
ltoes -30.0942
231
root 4.58269 17.8817 -1.76891 -3.46799 -16.7909 4.84265
lowerback 24.4056 -2.39142 -2.78541
upperback 5.26367 -3.30084 6.5497
thorax -7.15043 -1.55942 9.93367
lowerneck -10.1214 -2.10376 -2.85938
upperneck 24.737 -0.906373 -6.64371
head 9.46508 -1.45085 -1.92007
rclavicle -1.66979e-014 2.54444e-014
rhumerus -62.2581 -45.8501 -29.0499
rradius 85.3337
rwrist -46.2052
rhand -13.5003 -5.10064
rfingers 7.12502
rthumb 12.6109 -34.7
lclavicle -1.66979e-014 2.54444e-014
lhumerus -53.2568 10.4353 76.3313
lradius 54.1841
lwrist 9.69818
lhand -10.6739 48.1148
lfingers 7.12502
lthumb 15.3346 77.5263
rfemur -25.9378 6.78101 17.2558
rtibia 40.8506
rfoot -7.87285 -8.59758
rtoes 10.7132
lfemur 0.228725 8.78885 -24.5662
ltibia 48.5175
lfoot -5.62044 -5.14398
ltoes -30.3513
232
root 4.58379 17.878 -1.92534 -3.48169 -16.5921 4.68936
lowerback 24.9884 -2.53799 -3.20521
upperback 4.67737 -3.55225 6.74668
thorax -8.0155 -1.60625 10.5897
lowerneck -9.55499 -1.80159 -3.09719
upperneck 24.8964 -0.472112 -6.64113
head 9.42769 -1.27168 -1.82784
rclavicle -6.44062e-014 9.22361e-014
rhumerus -63.0772 -44.8515 -27.4624
rradius 86.7547
rwrist -46.296
rhand -12.7366 -4.87649
rfingers 7.12502
rthumb 13.3471 -34.429
lclavicle -6.44062e-014 9.22361e-014
lhumerus -54.4505 11.0415 75.8715
lradius 53.9569
lwrist 9.98546
lhand -11.157 47.671
lfingers 7.12502
lthumb 14.8692 77.1174
rfemur -26.2635 6.78528 17.4764
rtibia 40.6255
rfoot -7.30314 -8.67363
rtoes 11.2214
lfemur 1.55463 8.44427 -24.6103
ltibia 47.4124
lfoot -5.01664 -5.69807
ltoes -30.6041
